<svg id="visual" viewBox="0 0 900 300" width="900" height="300" xmlns="http://www.w3.org/2000/svg" xmlns:xlink="http://www.w3.org/1999/xlink" version="1.1"><path d="M0 231L15 217C30 203 60 175 90 170C120 165 150 183 180 174.7C210 166.3 240 131.7 270 112.2C300 92.7 330 88.3 360 82.8C390 77.3 420 70.7 450 85.3C480 100 510 136 540 158.7C570 181.3 600 190.7 630 192.5C660 194.3 690 188.7 720 186.5C750 184.3 780 185.7 810 193.3C840 201 870 215 885 222L900 229L900 301L885 301C870 301 840 301 810 301C780 301 750 301 720 301C690 301 660 301 630 301C600 301 570 301 540 301C510 301 480 301 450 301C420 301 390 301 360 301C330 301 300 301 270 301C240 301 210 301 180 301C150 301 120 301 90 301C60 301 30 301 15 301L0 301Z" fill="#1ED760" stroke-linecap="round" stroke-linejoin="miter"></path></svg>