<svg id="visual" viewBox="0 0 900 300" width="900" height="300" xmlns="http://www.w3.org/2000/svg" xmlns:xlink="http://www.w3.org/1999/xlink" version="1.1"><path d="M0 132L15 127.8C30 123.7 60 115.3 90 111.2C120 107 150 107 180 111.8C210 116.7 240 126.3 270 134C300 141.7 330 147.3 360 145.8C390 144.3 420 135.7 450 128C480 120.3 510 113.7 540 120.3C570 127 600 147 630 151.8C660 156.7 690 146.3 720 143.8C750 141.3 780 146.7 810 154.7C840 162.7 870 173.3 885 178.7L900 184L900 301L885 301C870 301 840 301 810 301C780 301 750 301 720 301C690 301 660 301 630 301C600 301 570 301 540 301C510 301 480 301 450 301C420 301 390 301 360 301C330 301 300 301 270 301C240 301 210 301 180 301C150 301 120 301 90 301C60 301 30 301 15 301L0 301Z" fill="#1ed760"></path><path d="M0 133L15 138.3C30 143.7 60 154.3 90 166.2C120 178 150 191 180 186.3C210 181.7 240 159.3 270 154.5C300 149.7 330 162.3 360 164.7C390 167 420 159 450 162.2C480 165.3 510 179.7 540 181.8C570 184 600 174 630 174.8C660 175.7 690 187.3 720 190.8C750 194.3 780 189.7 810 184.7C840 179.7 870 174.3 885 171.7L900 169L900 301L885 301C870 301 840 301 810 301C780 301 750 301 720 301C690 301 660 301 630 301C600 301 570 301 540 301C510 301 480 301 450 301C420 301 390 301 360 301C330 301 300 301 270 301C240 301 210 301 180 301C150 301 120 301 90 301C60 301 30 301 15 301L0 301Z" fill="#1fae53"></path><path d="M0 194L15 199.5C30 205 60 216 90 216.5C120 217 150 207 180 207C210 207 240 217 270 220.2C300 223.3 330 219.7 360 216.2C390 212.7 420 209.3 450 210.7C480 212 510 218 540 219.8C570 221.7 600 219.3 630 214.2C660 209 690 201 720 200.2C750 199.3 780 205.7 810 206.8C840 208 870 204 885 202L900 200L900 301L885 301C870 301 840 301 810 301C780 301 750 301 720 301C690 301 660 301 630 301C600 301 570 301 540 301C510 301 480 301 450 301C420 301 390 301 360 301C330 301 300 301 270 301C240 301 210 301 180 301C150 301 120 301 90 301C60 301 30 301 15 301L0 301Z" fill="#208645"></path><path d="M0 210L15 216.2C30 222.3 60 234.7 90 237.5C120 240.3 150 233.7 180 231.5C210 229.3 240 231.7 270 236.2C300 240.7 330 247.3 360 245.7C390 244 420 234 450 231C480 228 510 232 540 236.2C570 240.3 600 244.7 630 247.5C660 250.3 690 251.7 720 245.8C750 240 780 227 810 222.5C840 218 870 222 885 224L900 226L900 301L885 301C870 301 840 301 810 301C780 301 750 301 720 301C690 301 660 301 630 301C600 301 570 301 540 301C510 301 480 301 450 301C420 301 390 301 360 301C330 301 300 301 270 301C240 301 210 301 180 301C150 301 120 301 90 301C60 301 30 301 15 301L0 301Z" fill="#1f6036"></path><path d="M0 270L15 271.5C30 273 60 276 90 270.3C120 264.7 150 250.3 180 249.7C210 249 240 262 270 269.3C300 276.7 330 278.3 360 272.7C390 267 420 254 450 251.8C480 249.7 510 258.3 540 265C570 271.7 600 276.3 630 273.8C660 271.3 690 261.7 720 255.7C750 249.7 780 247.3 810 248.5C840 249.7 870 254.3 885 256.7L900 259L900 301L885 301C870 301 840 301 810 301C780 301 750 301 720 301C690 301 660 301 630 301C600 301 570 301 540 301C510 301 480 301 450 301C420 301 390 301 360 301C330 301 300 301 270 301C240 301 210 301 180 301C150 301 120 301 90 301C60 301 30 301 15 301L0 301Z" fill="#1c3d27"></path></svg>