<svg id="visual" viewBox="0 0 900 300" width="900" height="300" xmlns="http://www.w3.org/2000/svg" xmlns:xlink="http://www.w3.org/1999/xlink" version="1.1"><path d="M0 156L150 198L300 173L450 200L600 186L750 164L900 189L900 301L750 301L600 301L450 301L300 301L150 301L0 301Z" fill="#1ed760"></path><path d="M0 212L150 172L300 189L450 220L600 175L750 187L900 171L900 301L750 301L600 301L450 301L300 301L150 301L0 301Z" fill="#1eb656"></path><path d="M0 218L150 217L300 217L450 203L600 202L750 216L900 227L900 301L750 301L600 301L450 301L300 301L150 301L0 301Z" fill="#20964b"></path><path d="M0 233L150 222L300 251L450 226L600 249L750 220L900 246L900 301L750 301L600 301L450 301L300 301L150 301L0 301Z" fill="#20773f"></path><path d="M0 238L150 255L300 260L450 258L600 240L750 239L900 262L900 301L750 301L600 301L450 301L300 301L150 301L0 301Z" fill="#1f5933"></path><path d="M0 266L150 272L300 273L450 264L600 268L750 265L900 281L900 301L750 301L600 301L450 301L300 301L150 301L0 301Z" fill="#1c3d27"></path></svg>