<svg id="visual" viewBox="0 0 900 300" width="900" height="300" xmlns="http://www.w3.org/2000/svg" xmlns:xlink="http://www.w3.org/1999/xlink" version="1.1"><g transform="translate(411.72887312356846 160.5357210593226)"><path d="M94.8 -139.5C126.2 -127.4 157.2 -106.7 178.5 -76.7C199.8 -46.7 211.2 -7.3 207.6 31C203.9 69.4 185.1 106.7 151.9 114.9C118.8 123 71.3 102 37 100.4C2.7 98.8 -18.4 116.5 -49 126.2C-79.7 135.8 -120 137.3 -129.4 117.2C-138.8 97.2 -117.4 55.5 -104.1 26.2C-90.7 -3 -85.4 -19.8 -84.1 -45.1C-82.9 -70.4 -85.8 -104.2 -72.5 -124.6C-59.1 -145 -29.6 -152 1.1 -153.7C31.7 -155.4 63.4 -151.7 94.8 -139.5" fill="#1ED760"></path></g></svg>