<svg id="visual" viewBox="0 0 900 300" width="900" height="300" xmlns="http://www.w3.org/2000/svg" xmlns:xlink="http://www.w3.org/1999/xlink" version="1.1"><g transform="translate(475.9771227441376 128.47143866898406)"><path d="M56.4 -68.8C68.8 -56.9 71.3 -35 75.4 -13.1C79.6 8.8 85.2 30.7 79.3 50.2C73.3 69.8 55.6 87 31.9 101.8C8.2 116.5 -21.5 128.7 -48.7 123.4C-75.8 118 -100.2 95 -116.1 67.2C-132.1 39.4 -139.4 6.8 -128.9 -17.5C-118.4 -41.8 -90.1 -57.7 -65.6 -67.3C-41.1 -77 -20.6 -80.5 0.7 -81.4C22.1 -82.3 44.1 -80.6 56.4 -68.8" fill="#1ED760"></path></g></svg>