<svg id="visual" viewBox="0 0 900 300" width="900" height="300" xmlns="http://www.w3.org/2000/svg" xmlns:xlink="http://www.w3.org/1999/xlink" version="1.1"><g transform="translate(441.4371014515461 137.49978925949)"><path d="M95.7 -125.5C129.9 -127.1 167.3 -110.3 179.1 -82.4C190.9 -54.5 177.1 -15.5 166.8 20.7C156.5 56.9 149.7 90.3 129.1 109C108.5 127.6 74.1 131.4 42.3 138.2C10.4 144.9 -18.9 154.5 -49.9 153.1C-81 151.7 -113.8 139.4 -135.5 116.3C-157.1 93.2 -167.7 59.4 -166.4 27.7C-165.2 -4.1 -152.2 -33.8 -139.1 -63.9C-125.9 -94 -112.7 -124.4 -89.5 -127.9C-66.3 -131.3 -33.2 -107.9 -1.2 -106C30.8 -104.2 61.6 -124 95.7 -125.5" fill="#1ED760"></path></g></svg>